<?xml version="1.0" standalone="no"?>
<!DOCTYPE svg PUBLIC "-//W3C//DTD SVG 1.1//EN" "http://www.w3.org/Graphics/SVG/1.1/DTD/svg11.dtd" >
<svg xmlns="http://www.w3.org/2000/svg">
<metadata>Generated by IcoMoon</metadata>
<defs>
<font id="icomoon" horiz-adv-x="1024">
<font-face units-per-em="1024" ascent="960" descent="-64" />
<missing-glyph horiz-adv-x="1024" />
<glyph unicode="&#x20;" horiz-adv-x="512" d="" />
<glyph unicode="&#xe900;" glyph-name="case" d="M512 783.999c33.91 0 117.876 84.249 199.103 16.2-18.812 90.102-99.979 159.8-199.103 159.8-98.893 0-180.295-69.553-199.115-159.819 81.165 67.947 165.903-16.18 199.115-16.18zM512 160.001c0-8.837-7.163-16-16-16s-16 7.163-16 16c0 8.837 7.163 16 16 16s16-7.163 16-16zM512 224.001c0-8.837-7.163-16-16-16s-16 7.163-16 16c0 8.837 7.163 16 16 16s16-7.163 16-16zM560 176.001c0-8.837-7.163-16-16-16s-16 7.163-16 16c0 8.837 7.163 16 16 16s16-7.163 16-16zM815.237 405.894l-175.237 38.939v71.321c16.819 17.127 30.163 37.725 38.856 60.616l0.401 1.205c50.919 9.73 50.085 62.343 55.313 73.6 0.886 3.383 1.395 7.267 1.395 11.268 0 18.928-11.373 35.198-27.655 42.355l-0.298 0.117c7.651 35.947 5.764 34.513 6.955 43.229l-3.702 4.924c-70.417 93.671-145.266-1.47-199.267-1.47-53.432 0-128.886 95.090-199.267 1.466l-3.702-4.924c1.167-9.051-0.537-8.029 6.959-43.227-16.582-7.273-27.956-23.544-27.956-42.474 0-4.003 0.508-7.884 1.464-11.588l-0.070 0.321c4.701-10.116 4.649-63.915 55.313-73.6 9.094-24.089 22.441-44.683 39.283-61.83l-0.024 0.025v-71.337l-175.237-38.939c-64.977-14.836-112.733-72.123-112.762-140.568v-329.325h128v271.999c0 8.837 7.163 16 16 16s16-7.163 16-16v0-271.999h511.999v271.999c0 8.837 7.163 16 16 16s16-7.163 16-16v0-271.999h128v329.322c-0.026 68.45-47.785 125.737-111.794 140.387l-0.968 0.186zM512 416c8.837 0 16-7.163 16-16s-7.163-16-16-16c-8.837 0-16 7.163-16 16v0c0 8.837 7.163 16 16 16v0zM336 352c8.837 0 16-7.163 16-16s-7.163-16-16-16c-8.837 0-16 7.163-16 16v0c0 8.837 7.163 16 16 16v0zM336 64.001c-8.837 0-16 7.163-16 16s7.163 16 16 16c8.837 0 16-7.163 16-16v0c0-8.837-7.163-16-16-16v0zM512-31.999c-8.837 0-16 7.163-16 16s7.163 16 16 16c8.837 0 16-7.163 16-16v0c0-8.837-7.163-16-16-16v0zM688 176.001h-65.161c-2.14-14.566-6.803-27.676-13.557-39.436l0.285 0.54 53.587-26.801c15.023-7.503 9.685-30.305-7.168-30.305-6.526 0-4.723 1.034-66.387 31.358-3.89-3.747-8.085-7.244-12.525-10.431l-0.337-0.232 59.757-74.695c2.172-2.71 3.485-6.192 3.485-9.978 0-8.831-7.145-15.993-15.967-16.021h-0.003c-13.735 0-11.987 8.717-76.371 85.845-5.581-1.964-12.206-3.596-19.031-4.61l-0.605-0.074v-33.161c0-8.837-7.163-16-16-16s-16 7.163-16 16v0 33.161c-9.602 1.407-18.246 3.821-26.403 7.177l0.739-0.268-40.801-64.615c-11.115-17.6-38.427-0.917-27.057 17.088l40.177 63.61c-6.372 5.056-11.99 10.559-16.997 16.59l-0.149 0.187-32.497-22.152c-17.319-11.799-35.621 14.443-18.029 26.44l33.885 23.104c-3.509 8.019-6.204 17.341-7.636 27.072l-0.073 0.603h-65.161c-8.837 0-16 7.163-16 16s7.163 16 16 16v0h65.161c0.246 1.715 0.535 3.413 0.859 5.103l-25.177 12.589c-5.348 2.666-8.956 8.093-8.956 14.365 0 8.837 7.163 16 16 16 2.651 0 5.155-0.645 7.357-1.788l-0.088 0.043 21.475-10.739c3.121 5.959 6.363 11.052 9.983 15.845l-0.204-0.283c-6.453 3.955-17.999 12.682-47.282 31.556-4.397 2.898-7.256 7.816-7.256 13.399 0 8.837 7.163 16 16 16 3.365 0 6.484-1.037 9.062-2.811l47.945-31.964c1.552-1.033 2.875-2.264 3.972-3.679l0.027-0.039c3.471 2.631 7.412 5.235 11.514 7.587l0.547 0.289-38.957 70.823c-1.245 2.225-1.98 4.881-1.98 7.709 0 8.837 7.164 16 16 16 6.008 0 11.244-3.313 13.977-8.208l0.043-0.080 41.001-74.552c2.952 0.675 5.942 1.243 8.975 1.679v33.161c0 8.837 7.163 16 16 16s16-7.163 16-16v0-33.161c15.012-2.209 28.516-7.107 40.561-14.213l-0.518 0.282 50.645 75.966c2.898 4.397 7.816 7.256 13.399 7.256 8.837 0 16-7.163 16-16 0-3.365-1.037-6.484-2.811-9.062l-52.048-78.070c3.764-3.959 7.282-8.246 10.474-12.78l0.24-0.358 28.909 14.454c2.113 1.099 4.615 1.745 7.269 1.745 8.837 0 16-7.163 16-16 0-6.272-3.608-11.701-8.862-14.324l-0.092-0.043-28.872-14.437c1.9-5.465 3.489-11.963 4.48-18.655l0.074-0.605h65.161c8.837 0 16-7.163 16-16s-7.163-16-16-16v0zM688 272c-8.837 0-16 7.163-16 16s7.163 16 16 16c8.837 0 16-7.163 16-16v0c0-8.837-7.163-16-16-16v0z" />
<glyph unicode="&#xe901;" glyph-name="death" d="M828.253 927.975c-10.112 17.58-27.309 29.057-47.105 31.533-20.052 2.476-39.341-4.396-54.957-20.564-57.429-67.925-141.399-106.926-230.405-106.926h-109.442c-164.439 0-305.202-122.158-327.474-284.166-10.752-78.51-16.212-147.971-16.212-206.512v-60.801c0-109.014 52.397-212.696 140.163-277.381 59.649-43.949 130.307-67.157 204.376-67.157h249.605c74.069 0 144.771 23.212 204.376 67.157 87.766 64.685 140.163 168.367 140.163 277.381v60.801c0 210.008-52.949 412.893-153.091 586.644zM790.581 71.888c-44.845-33.069-98.050-50.561-153.775-50.561h-249.605c-55.765 0-108.93 17.492-153.775 50.561-66.005 48.641-105.43 126.639-105.43 208.644v82.39l80.214 118.19c20.396 30.037 51.285 50.005 87.042 56.277 35.713 6.188 71.637-2.048 100.95-23.424 69.249-50.389 162.351-50.389 231.601 0 29.313 21.332 65.069 29.697 100.95 23.424 35.757-6.228 66.689-26.241 87.042-56.277l80.214-118.19v-82.39c0-82.006-39.425-160.003-105.43-208.644zM374.612 438.616c-12.5 12.5-32.769 12.5-45.269 0l-9.388-9.388-9.388 9.388c-12.5 12.5-32.769 12.5-45.269 0s-12.5-32.769 0-45.269l9.388-9.388-9.388-9.388c-12.5-12.5-12.5-32.769 0-45.269 6.316-6.188 14.508-9.3 22.7-9.3s16.384 3.116 22.612 9.388l9.388 9.388 9.388-9.388c6.228-6.272 14.42-9.388 22.612-9.388s16.384 3.116 22.612 9.388c12.5 12.5 12.5 32.769 0 45.269l-9.388 9.388 9.388 9.388c12.5 12.46 12.5 32.685 0 45.185zM758.62 438.616c-12.5 12.5-32.769 12.5-45.269 0l-9.388-9.388-9.388 9.388c-12.5 12.5-32.769 12.5-45.269 0s-12.5-32.769 0-45.269l9.388-9.388-9.388-9.388c-12.5-12.5-12.5-32.769 0-45.269 6.228-6.228 14.42-9.388 22.612-9.388s16.384 3.116 22.612 9.388l9.388 9.388 9.388-9.388c6.228-6.228 14.42-9.388 22.612-9.388s16.384 3.116 22.612 9.388c12.5 12.5 12.5 32.769 0 45.269l-9.388 9.388 9.388 9.388c12.588 12.544 12.588 32.769 0.084 45.269zM512.003 234.667c-58.837 0-106.67-43.053-106.67-96.002v-8.020c0-13.228 11.948-23.98 26.669-23.98h160.003c14.72 0 26.669 10.752 26.669 24.020v7.98c0 52.949-47.829 96.002-106.67 96.002z" />
<glyph unicode="&#xe902;" glyph-name="recovered" d="M510.607 319.233l-22.388 50.402c-23.226-11.11-50.279-16.747-80.684-16.747-31.193 0-58.868 6.085-82.52 18.057l-23.707-51.101c-1.624-3.443-4.53-6.049-8.092-7.235l-0.099-0.024c-3.098-1.006-6.275-2.002-9.491-2.993 6.824-33.698 45.741-96.384 123.895-96.384 58.927 0 99.894 37.101 117.489 69.418q3.171 12.611 7.532 24.721c-4.979 1.56-9.519 3.030-13.801 4.469-3.665 1.255-6.573 3.924-8.118 7.335l-0.038 0.082zM213.079 741.541c6.397-19.537 20.106-35.16 37.818-43.927l0.431-0.192c28.026-13.183 66.139-9.061 113.267 12.253 65.767 29.74 101.816 61.537 120.494 82.963 20.012 22.964 24.772 39.171 24.812 39.335 1.592 5.878 6.879 10.128 13.16 10.128 2.445 0 4.736-0.643 6.712-1.767l-0.066 0.038c21.44-12.609 39.66-28.086 54.857-46.19l0.259-0.319c-5.488 23.032-15.222 43.225-28.409 60.665l0.294-0.408c-32.095 42.324-83.49 63.784-152.758 63.784-68.739 0-121.092-20.249-155.593-60.172-32.876-38.028-40.408-84.312-37.437-104.558 0.37-2.529 1.11-6.532 2.112-11.521 0.006-0.033 0.018-0.061 0.033-0.098zM556.98 527.952c2.045 1.325 4.538 2.108 7.22 2.108 0.117 0 0.234-0.001 0.35-0.004h0.406c22.727 0 49.187 34.048 59.163 76.249 3.545 15.071-1.368 26.454-8.071 29.905-6.852 3.527-13.586-2.45-16.99-6.328-2.524-2.868-6.204-4.662-10.296-4.662-7.566 0-13.696 6.13-13.696 13.696 0 2.774 0.826 5.359 2.245 7.519l-0.035-0.052c3.341 7.919 7.103 42.995 9.515 72.44-0.137 42.532-37.348 74.848-57.56 89.265-13.864-26.037-52.451-77.764-153.341-123.392-32.711-14.792-62.227-22.2-88.287-22.2-0.466-0.006-1.014-0.010-1.569-0.010-17.013 0-33.128 3.823-47.536 10.656l0.67-0.288c-4.596 2.215-8.466 4.446-12.156 6.925l0.347-0.221c4.056-15.727 7.869-28.73 10.108-32.665 1.597-2.215 2.56-4.98 2.56-7.971 0-7.566-6.13-13.696-13.696-13.696-3.914 0-7.44 1.64-9.933 4.269l-0.005 0.005c-6.070 6.393-12.586 8.434-17.863 5.582-6.129-3.312-11.112-13.739-7.563-28.793 9.973-42.197 36.435-76.249 59.165-76.249 0.229 0 0.458 0 0.687 0 0.011 0 0.024 0 0.044 0 7.389 0 13.404-5.864 13.652-13.192l0.001-0.020c0.916-13.283 8.235-81.301 63.106-115.944 21.658-13.684 48.541-20.621 79.925-20.621 31.478 0 58.429 6.788 80.101 20.165 55.896 34.55 62.227 102.898 62.928 116.244 0.116 4.741 2.622 8.868 6.349 11.239l0.056 0.036zM516.987 217.536c0 3.88 0.104 7.761 0.27 11.613-28.543-26.841-67.084-43.334-109.481-43.334-0.079 0-0.166 0-0.244 0h0.011c-88.553 0-139.693 68.071-150.298 116.040q-10.607-2.989-21.721-6.046c-53.266-14.729-113.638-31.412-159.909-59.263-50.882-30.617-75.615-69.885-75.615-120.037v-98.622c0-14.784 27.448-39.541 43.831-39.541h621.819c-88.733 44.621-148.565 134.908-148.662 239.179v0.011zM850.794 334.635c-29.411-0.033-53.239-23.857-53.281-53.263v-0.003c0-7.566-6.13-13.696-13.696-13.696s-13.696 6.13-13.696 13.696v0c-0.020 29.426-23.86 53.276-53.279 53.322h-0.004c-8.906 0-53.279-3.193-53.279-66.016 0-74.299 92.898-145.882 120.233-165.346 27.323 19.55 120.282 91.501 120.282 165.358 0.004 25.497-14.459 65.949-53.275 65.949zM783.822 456.974c-132.229-0.006-239.421-107.201-239.421-239.431 0-128.506 101.231-233.365 228.303-239.179l0.523-0.017h7.532c0.889-0.003 1.758-0.093 2.596-0.251l-0.083 0.012c0.182 0 0.364 0 0.548 0 0.221-0.001 0.478-0.001 0.743-0.001 132.237 0 239.437 107.2 239.437 239.437s-107.2 239.437-239.437 239.437c-0.257 0-0.52 0-0.778-0.001h0.042zM860.501 132.5c-20.72-20.775-43.345-39.615-67.604-56.261l-1.606-1.044c-2.11-1.395-4.696-2.223-7.475-2.223-2.765 0-5.341 0.82-7.497 2.231l0.053-0.035c-25.894 17.598-48.528 36.372-69.234 57.088l-0.002 0.002c-47.096 47.231-70.972 93.124-70.972 136.403 0 23.344 6.244 45.205 17.577 61.539 14.475 20.852 36.299 31.877 63.086 31.877 27.798-0.009 52.315-14.087 66.802-35.494l0.181-0.285c14.685 21.667 39.184 35.718 66.968 35.724h0.001c52.399 0 80.671-48.094 80.671-93.341 0.008-43.034-23.864-88.854-70.956-136.187z" />
<glyph unicode="&#xe903;" glyph-name="arrow" horiz-adv-x="560" d="M541.363 476.1l-473.631 472.32c-15.518 15.466-40.642 15.44-56.134-0.080-15.48-15.518-15.44-40.656 0.080-56.134l445.438-444.208-445.454-444.206c-15.518-15.48-15.558-40.602-0.080-56.122 7.766-7.78 17.94-11.67 28.114-11.67 10.148 0 20.282 3.864 28.034 11.59l473.632 472.308c7.474 7.436 11.668 17.556 11.668 28.1s-4.206 20.652-11.668 28.102z" />
<glyph unicode="&#xe904;" d="M341.333 345.6h-238.933v358.4h273.067l187.733-153.6z" />
<glyph unicode="&#xe905;" d="M0.002 721.067h102.4v-375.467h-102.4z" />
<glyph unicode="&#xe906;" d="M614.4 669.867l-344.256-344.256c-8.737-8.746-20.813-14.156-34.15-14.156-26.66 0-48.272 21.612-48.272 48.272 0 13.339 5.41 25.413 14.156 34.15v0l344.256 344.256z" />
<glyph unicode="&#xe907;" d="M469.249 661.308l76.789 76.789 68.257-68.257-76.789-76.789z" />
<glyph unicode="&#xe908;" d="M290.133 226.133h119.467v-204.8h-119.467z" />
<glyph unicode="&#xe909;" d="M477.867 311.467h119.467v-290.133h-119.467z" />
<glyph unicode="&#xe90a;" d="M665.6 413.867h119.467v-392.533h-119.467z" />
<glyph unicode="&#xe90b;" d="M853.333 584.533h119.467v-563.198h-119.467z" />
<glyph unicode="&#xe90c;" d="M102.4 157.867h119.467v-136.533h-119.467z" />
<glyph unicode="&#xe90d;" d="M119.467-29.867h85.333v-34.133h-85.333z" />
<glyph unicode="&#xe90e;" d="M307.2-29.867h85.333v-34.133h-85.333z" />
<glyph unicode="&#xe90f;" d="M494.933-29.867h85.333v-34.133h-85.333z" />
<glyph unicode="&#xe910;" d="M682.667-29.867h85.333v-34.133h-85.333z" />
<glyph unicode="&#xe911;" d="M870.4-29.867h85.333v-34.133h-85.333z" />
<glyph unicode="&#xe912;" d="M51.2 38.4h972.798v-34.133h-972.798z" />
<glyph unicode="&#xe913;" d="M634.395 547.472l-39.989 39.989c-8.735 8.736-20.803 14.139-34.132 14.139 0 0 0 0-0.001 0v0c0 0 0 0 0 0-26.66 0-48.272-21.612-48.272-48.272 0 0 0 0 0 0v0c0 0 0 0 0 0 0-13.329 5.403-25.397 14.138-34.132l-17.067 17.066c-8.735 8.736-20.803 14.139-34.132 14.139 0 0 0 0-0.001 0v0c-26.66 0-48.272-21.612-48.272-48.272 0 0 0 0 0 0v0c0-13.33 5.403-25.397 14.139-34.133v0c-8.735 8.736-20.803 14.139-34.132 14.139 0 0 0 0-0.001 0v0c-26.66 0-48.272-21.612-48.272-48.272 0 0 0 0 0 0v0c0-13.33 5.403-25.397 14.139-34.133v0c-8.735 8.736-20.803 14.139-34.132 14.139 0 0 0 0-0.001 0v0c-26.66 0-48.272-21.612-48.272-48.272 0 0 0 0 0 0v0c0-13.33 5.403-25.397 14.139-34.133l22.923-22.923c8.735-8.735 20.803-14.139 34.133-14.139v0c26.66 0 48.272 21.612 48.272 48.272 0 0 0 0 0 0v0c0 0 0 0 0 0 0 13.33-5.403 25.397-14.139 34.133v0c8.735-8.735 20.803-14.139 34.133-14.139v0c26.66 0 48.272 21.612 48.272 48.272 0 0 0 0 0 0v0c0 13.329-5.403 25.397-14.138 34.132l17.066-17.066c8.735-8.735 20.803-14.139 34.133-14.139v0c0 0 0 0 0 0 26.66 0 48.272 21.612 48.272 48.272 0 0 0 0 0 0v0c0 13.33-5.403 25.397-14.138 34.133l17.067-17.067c8.736-8.736 20.803-14.139 34.133-14.139v0c0 0 0 0 0 0 26.66 0 48.272 21.612 48.272 48.272 0 0 0 0 0 0v0c0 13.33-5.403 25.397-14.139 34.133v0z" />
<glyph unicode="&#xe914;" d="M426.56 482.141c6.665 6.665 17.469 6.665 24.133 0v0l29.987-29.987c6.665-6.665 6.665-17.469 0-24.132v0c-6.665-6.665-17.469-6.665-24.132 0v0l-29.987 29.987c-6.665 6.665-6.665 17.469 0 24.132v0z" />
<glyph unicode="&#xe915;" d="M508.962 536.256c6.663 6.663 17.469 6.663 24.132 0l29.989-29.989c6.663-6.663 6.663-17.469 0-24.132s-17.469-6.663-24.132 0l-29.989 29.989c-6.663 6.663-6.663 17.469 0 24.132z" />
<glyph unicode="&#xe916;" d="M358.295 413.882c6.665 6.665 17.469 6.665 24.133 0v0l27.059-27.059c6.665-6.665 6.665-17.469 0-24.132 0 0 0 0 0 0v0c-6.665-6.665-17.469-6.665-24.132 0v0l-27.059 27.059c-6.665 6.665-6.665 17.469 0 24.132v0z" />
<glyph unicode="&#xe917;" d="M819.2 789.333c0-84.831-68.769-153.6-153.6-153.6s-153.6 68.769-153.6 153.6c0 84.831 68.769 153.6 153.6 153.6s153.6-68.769 153.6-153.6z" />
<glyph unicode="&#xe918;" d="M665.6 618.667c-94.257 0-170.667 76.41-170.667 170.667s76.41 170.667 170.667 170.667c94.257 0 170.667-76.41 170.667-170.667v0c-0.11-94.212-76.454-170.557-170.656-170.667h-0.011zM665.6 925.867c-75.405 0-136.533-61.129-136.533-136.533s61.129-136.533 136.533-136.533c75.405 0 136.533 61.129 136.533 136.533v0c-0.087 75.37-61.164 136.446-136.525 136.533h-0.009z" />
<glyph unicode="&#xe919;" d="M170.667 704h264.533c23.564 0 42.667-19.103 42.667-42.667v0c0-23.564-19.103-42.667-42.667-42.667v0h-110.933l-37.061-37.061c-29.825-29.825-71.027-48.272-116.539-48.272v0z" />
<glyph unicode="&#xe91a;" d="M170.667 534.212c0 0.025 0 0.053 0 0.081 0 8.721 6.581 15.906 15.047 16.859l0.077 0.007c35.168 3.626 66.149 19.188 89.34 42.507l37.068 37.069c3.088 3.088 7.354 4.998 12.066 4.998h110.186c0.091-0.001 0.197-0.002 0.304-0.002 13.37 0 24.391 10.053 25.918 23.013l0.012 0.123c0.074 0.731 0.116 1.58 0.116 2.437 0 14.144-11.458 25.612-25.599 25.628h-332.801v34.133h331.53c32.503 0 60.013-25.437 60.977-57.926 0.016-0.519 0.026-1.13 0.026-1.743 0-33.003-26.735-59.76-59.728-59.797h-103.867l-32.064-32.065c-28.53-28.687-66.625-47.836-109.098-52.257l-0.777-0.065c-0.501-0.052-1.083-0.082-1.67-0.082-9.423 0-17.060 7.638-17.060 17.060 0 0.007 0 0.015 0 0.021v-0.001z" />
<glyph unicode="&#xe91b;" d="M948.959 55.762c-13.877-23.977-39.405-39.85-68.64-39.85-0.174 0-0.347 0.001-0.521 0.002h-799.811c-44.192 0.069-79.99 35.91-79.99 80.112 0 14.496 3.85 28.092 10.583 39.822l-0.206-0.39 399.919 704.139c13.815 24.338 39.555 40.49 69.067 40.49 0.192 0 0.384-0.001 0.576-0.002h-0.029c0.124 0.001 0.27 0.001 0.416 0.001 29.55 0 55.328-16.147 68.993-40.099l0.205-0.39 399.919-704.139c6.641-11.313 10.564-24.918 10.564-39.438 0-14.854-4.105-28.75-11.243-40.614l0.199 0.356z" />
<glyph unicode="&#xe91c;" d="M79.987 79.926c-0.149-0.005-0.324-0.008-0.5-0.008-5.646 0-10.565 3.118-13.128 7.726l-0.039 0.077c-1.543 2.336-2.462 5.203-2.462 8.285 0 2.847 0.784 5.511 2.148 7.787l-0.038-0.069 400.079 704.267c2.586 4.847 7.608 8.089 13.388 8.089 0.166 0 0.331-0.003 0.495-0.008l-0.024 0.001c0.129 0.004 0.281 0.006 0.434 0.006 5.837 0 10.912-3.266 13.497-8.071l0.040-0.082 399.887-704.139c1.39-2.225 2.215-4.929 2.215-7.826s-0.824-5.6-2.251-7.889l0.037 0.063c-2.586-4.945-7.679-8.263-13.546-8.263-0.133 0-0.265 0.002-0.396 0.005h0.019z" />
<glyph unicode="&#xe91d;" d="M479.906 255.961c-19.76 0.002-35.994 15.096-37.804 34.384l-0.011 0.151-25.253 312.542c-0.165 1.717-0.26 3.712-0.26 5.729 0 34.947 28.33 63.276 63.276 63.276 0.018 0 0.036 0 0.055 0h-0.003c0.001 0 0.002 0 0.004 0 34.947 0 63.276-28.33 63.276-63.276 0-2.017-0.094-4.012-0.279-5.981l0.019 0.252-25.253-312.542c-1.819-19.422-18.028-34.507-37.764-34.535h-0.003z" />
<glyph unicode="&#xe91e;" d="M527.915 175.945c0-26.515-21.494-48.009-48.009-48.009s-48.009 21.494-48.009 48.009c0 26.515 21.494 48.009 48.009 48.009s48.009-21.494 48.009-48.009z" />
<glyph unicode="&#xe91f;" d="M766.363 554.004c-6.147 1.336-10.914 6.066-12.285 12.087l-0.021 0.107c-6.893 30.538-24.136 56.243-47.771 73.841l-0.334 0.238c-4.163 2.931-6.849 7.715-6.849 13.127 0 8.839 7.164 16.003 16.003 16.003 3.734 0 7.169-1.279 9.892-3.423l-0.034 0.026c30.064-22.364 51.689-54.601 60.131-91.843l0.201-1.055c0.239-1.036 0.376-2.226 0.376-3.449 0-7.617-5.32-13.99-12.447-15.607l-0.107-0.020c-1.036-0.247-2.225-0.388-3.449-0.388-1.171 0-2.311 0.13-3.409 0.376l0.103-0.019z" />
<glyph unicode="&#xe920;" d="M846.378 551.219c-6.771 1.486-11.878 7.108-12.573 14.032l-0.005 0.067c-6.455 63.678-43.153 117.581-95.315 147.679l-0.928 0.494c-4.649 2.856-7.704 7.913-7.704 13.683 0 8.839 7.164 16.003 16.003 16.003 2.749 0 5.336-0.693 7.596-1.914l-0.085 0.042c61.933-35.678 104.741-98.555 112.184-171.887l0.078-0.947c0.048-0.463 0.075-1.001 0.075-1.545 0-8.301-6.32-15.126-14.412-15.925l-0.066-0.005c-0.5-0.053-1.080-0.084-1.666-0.084-1.126 0-2.225 0.112-3.289 0.326l0.106-0.018z" />
<glyph unicode="&#xe921;" d="M924.65 548.467c-7.124 1.566-12.413 7.72-12.641 15.147l-0.001 0.024c-2.905 97.566-60.301 181.067-142.686 221.364l-1.502 0.664c-5.122 2.738-8.549 8.049-8.549 14.161 0 8.839 7.164 16.003 16.003 16.003 2.335 0 4.553-0.5 6.553-1.399l-0.101 0.041c94.414-46.092 159.011-140.069 162.262-249.451l0.010-0.422c0.005-0.145 0.007-0.316 0.007-0.487 0-8.667-6.889-15.724-15.49-15.995l-0.025-0.001c-0.115-0.003-0.25-0.004-0.386-0.004-1.223 0-2.416 0.13-3.566 0.376l0.111-0.020z" />
</font>
</defs>
</svg>
